<?xml version="1.0" encoding="UTF-8" standalone="no"?>
<!-- Created with Inkscape (http://www.inkscape.org/) -->

<svg
   xmlns:dc="http://purl.org/dc/elements/1.1/"
   xmlns:cc="http://creativecommons.org/ns#"
   xmlns:rdf="http://www.w3.org/1999/02/22-rdf-syntax-ns#"
   xmlns:svg="http://www.w3.org/2000/svg"
   xmlns="http://www.w3.org/2000/svg"
   xmlns:sodipodi="http://sodipodi.sourceforge.net/DTD/sodipodi-0.dtd"
   xmlns:inkscape="http://www.inkscape.org/namespaces/inkscape"
   width="210mm"
   height="297mm"
   viewBox="0 0 210 297"
   version="1.1"
   id="svg8"
   inkscape:version="0.92.3 (2405546, 2018-03-11)"
   sodipodi:docname="logo-outline.svg">
  <defs
     id="defs2" />
  <sodipodi:namedview
     id="base"
     pagecolor="#ffffff"
     bordercolor="#666666"
     borderopacity="1.0"
     inkscape:pageopacity="0.0"
     inkscape:pageshadow="2"
     inkscape:zoom="0.7"
     inkscape:cx="-36.752849"
     inkscape:cy="1109.5618"
     inkscape:document-units="mm"
     inkscape:current-layer="layer1"
     showgrid="false"
     inkscape:snap-text-baseline="false"
     inkscape:window-width="1920"
     inkscape:window-height="1001"
     inkscape:window-x="-9"
     inkscape:window-y="-9"
     inkscape:window-maximized="1" />
  <metadata
     id="metadata5">
    <rdf:RDF>
      <cc:Work
         rdf:about="">
        <dc:format>image/svg+xml</dc:format>
        <dc:type
           rdf:resource="http://purl.org/dc/dcmitype/StillImage" />
        <dc:title></dc:title>
      </cc:Work>
    </rdf:RDF>
  </metadata>
  <g
     inkscape:label="Layer 1"
     inkscape:groupmode="layer"
     id="layer1">
    <path
       style="fill:#fff000;stroke-width:0.812;fill-opacity:0;stroke:#9c27b0;stroke-opacity:0.98039216;stroke-miterlimit:4;stroke-dasharray:none;stroke-linejoin:round;stroke-linecap:butt;paint-order:fill markers stroke"
       d="m 76.593466,62.634107 c -3.052716,-0.66332 -6.021745,-2.96246 -7.37702,-5.71258 -0.76412,-1.55056 -1.352329,-3.85223 -1.352329,-5.29167 0,-0.46567 0.139985,-1.51342 0.31108,-2.32833 1.850796,-8.81531 12.767303,-12.01752 19.178093,-5.62564 2.245794,2.23916 3.231035,4.66457 3.231035,7.95397 0,3.30292 -0.982796,5.70986 -3.26212,7.98919 -2.801476,2.80147 -6.686721,3.89333 -10.728739,3.01506 z m 6.023728,-3.37193 c 3.403964,-1.834319 4.600759,-5.069981 4.61256,-7.670179 0.03162,-3.334105 -1.92123,-6.293486 -4.730916,-7.654021 -1.036516,-0.4859 -1.47698,-0.56312 -3.212073,-0.56312 -1.759058,0 -2.16985,0.0742 -3.280833,0.59283 -2.481517,1.15835 -4.119673,3.41474 -4.56557,6.28861 -0.644048,4.151 1.450643,7.9618 5.124884,9.32352 1.678165,0.62195 4.274259,0.48569 6.051948,-0.31764 z m 33.957976,3.36717 c -1.66591,-0.36159 -2.86273,-1.05032 -4.03486,-2.32194 -1.83659,-1.99246 -1.81272,-1.8496 -1.88318,-11.27047 l -0.0621,-8.30791 h 1.5849 1.58491 l 0.0647,7.88458 c 0.0625,7.61072 0.0806,7.91399 0.52159,8.73125 0.92909,1.7218 2.5003,2.64705 4.491,2.64465 2.08821,-0.002 3.60232,-0.87847 4.53669,-2.62461 0.44983,-0.84064 0.46566,-1.10383 0.52633,-8.75129 l 0.0626,-7.88458 h 1.57786 1.57787 v 8.04106 c 0,7.46322 -0.0297,8.11922 -0.41326,9.12866 -0.9514,2.5039 -2.82922,4.11284 -5.51241,4.72311 -1.7418,0.39617 -2.82383,0.39792 -4.62259,0.008 z m 49.80839,0.0136 c -1.75694,-0.38255 -2.68444,-0.80116 -4.24936,-1.91787 -1.65015,-1.17752 -3.10666,-3.15446 -3.8602,-5.23951 -0.46887,-1.29736 -0.81089,-1.956447 -0.80005,-3.914779 0.0105,-1.902452 0.33115,-2.499311 0.80005,-3.796671 2.82095,-7.80557 12.91308,-10.00375 18.82153,-4.09954 5.39236,5.3885 3.84677,14.7569 -2.9821,18.07565 -2.38782,1.16045 -5.07501,1.47079 -7.72987,0.89272 z m 6.1025,-3.46352 c 2.72258,-1.34032 4.1438,-3.65747 4.32922,-7.05833 0.2902,-5.32273 -3.32054,-9.10892 -8.39886,-8.80697 -4.9248,0.698164 -7.25742,4.273327 -7.28676,8.31572 -0.23583,4.820778 4.5114,8.370207 8.14228,8.30227 1.54711,-0.0587 2.03803,-0.1737 3.21412,-0.75269 z m -159.239293,1.80457 v -1.54669 l 5.78756,-7.9254 5.787559,-7.92539 -5.258393,-0.0566 -5.258392,-0.0566 v -1.47804 -1.47803 h 7.302499 7.3025 v 1.35373 1.35373 l -5.92449,8.11836 -5.924489,8.11835 6.136156,0.0561 6.136156,0.0561 v 1.47847 1.47847 H 21.2901 13.246767 Z M 32.7201,51.524017 v -11.00667 h 6.138333 6.138333 v 1.48167 1.48166 h -4.445 -4.444999 v 3.28084 3.28083 h 3.598333 3.598333 v 1.48167 1.48166 H 39.7051 36.106767 v 3.28084 3.28083 h 4.656666 4.656667 v 1.48167 1.48166 h -6.35 -6.35 z m 23.210849,10.84791 c -0.127525,-0.2077 -8.394183,-21.43155 -8.394183,-21.55125 0,-0.0504 0.785813,-0.0905 1.74625,-0.0892 l 1.74625,0.002 2.390883,6.50626 c 1.314985,3.57845 2.630724,7.29208 2.923866,8.25252 0.293139,0.96044 0.598367,1.74285 0.678283,1.73869 0.07991,-0.004 0.588322,-1.36146 1.12979,-3.01625 0.541471,-1.65478 1.862163,-5.36613 2.934873,-8.24744 l 1.950383,-5.23875 h 1.769472 c 1.748346,0 1.767277,0.006 1.585703,0.47625 -0.199386,0.51672 -8.04164,20.62626 -8.213238,21.06083 -0.113206,0.2867 -2.080433,0.3793 -2.248332,0.10584 z m 39.019152,-10.74208 v -10.90083 h 1.69333 1.69333 v 9.41916 9.41917 h 4.550839 4.55083 v 1.48167 1.48166 h -6.24417 -6.244159 z m 42.121659,1.37583 v -9.525 h -3.38666 -3.38667 v -1.48166 -1.48167 h 8.255 8.255 v 1.48167 1.48166 h -3.28083 -3.28084 v 9.525 9.525 h -1.5875 -1.5875 z m 12.91167,-1.48166 v -11.00667 h 1.5875 1.5875 v 11.00667 11.00666 h -1.5875 -1.5875 z m 34.71333,0 v -11.00667 h 1.45873 1.45873 l 6.21419,8.24548 c 3.4178,4.53501 6.28562,8.24976 6.37293,8.255 0.0873,0.005 0.15875,-3.70523 0.15875,-8.24548 v -8.255 h 1.5875 1.5875 v 11.01594 11.01594 l -1.51551,-0.0622 -1.51552,-0.0622 -6.01041,-7.9375 c -3.30573,-4.36563 -6.148,-8.07697 -6.31615,-8.24744 -0.26661,-0.27028 -0.30574,0.75231 -0.30574,7.99042 v 8.30035 h -1.5875 -1.5875 z"
       id="path3724"
       inkscape:connector-curvature="0"
       sodipodi:nodetypes="ccsccscccccscsscccccccccccccccscccccccscssccscccccccccccccccccccccccccccccccccccccccccccccccccccsccscccscscccccccccccccccccccccccccccccccccccccccccccccccscscccccccscscccc" />
  </g>
</svg>
